<svg xmlns="http://www.w3.org/2000/svg" width="24" height="2374"><symbol fill="none" id="adiclub-logo" viewBox="0 0 24 24"><title>adiclub-logo</title><path d="M3.348 10.787a2.087 2.087 0 0 0-1.22-.375 2.096 2.096 0 0 0-1.505.633A2.165 2.165 0 0 0 0 12.575c0 1.192.963 2.177 2.128 2.177.435.003.86-.127 1.22-.375v.278h1.004v-4.201H3.348v.333Zm-1.192 2.98a1.17 1.17 0 0 1-.834-.35 1.21 1.21 0 0 1 0-1.697 1.17 1.17 0 0 1 .834-.351c.314.003.615.13.838.356.222.225.35.53.354.85a1.2 1.2 0 0 1-1.192 1.192Zm5.897-2.98a2.046 2.046 0 0 0-1.207-.375 2.104 2.104 0 0 0-1.562.606 2.204 2.204 0 0 0 0 3.13 2.104 2.104 0 0 0 1.563.605 2.153 2.153 0 0 0 1.206-.375v.277h1.015V9.026H8.053v1.761Zm-1.177 2.98c-.651 0-1.193-.54-1.193-1.192a1.23 1.23 0 0 1 .355-.85c.223-.226.523-.354.838-.357.637 0 1.18.554 1.18 1.206a1.22 1.22 0 0 1-.351.841 1.18 1.18 0 0 1-.83.352Zm2.698-3.313h1.018v4.2h-1.02l.002-4.2Zm1.017-.388H9.57v-1.04h1.017l.003 1.04Zm3.38 3.403.07.045c-.179.395-.417.695-.713.9-.282.202-.62.31-.965.31a1.494 1.494 0 0 1-.726-.168 1.151 1.151 0 0 1-.48-.491 1.644 1.644 0 0 1-.172-.774 3.313 3.313 0 0 1 .183-1.113c.115-.332.287-.64.51-.91a2.5 2.5 0 0 1 .747-.62 1.88 1.88 0 0 1 .9-.226 1.485 1.485 0 0 1 1.175.53l-.644.58h-.026c-.075-.277-.171-.482-.287-.616a.553.553 0 0 0-.426-.199.692.692 0 0 0-.453.186c-.16.143-.292.314-.391.505a3.309 3.309 0 0 0-.382 1.557c0 .347.078.623.235.827a.75.75 0 0 0 .617.305c.225.003.447-.049.648-.15.22-.122.417-.283.579-.477h.002Zm1.316.08a2.354 2.354 0 0 0-.022.442c.008.101.059.15.152.15a.21.21 0 0 0 .095-.026.316.316 0 0 0 .088-.062l.052.036c-.07.178-.177.34-.313.473a.67.67 0 0 1-.478.182c-.197 0-.34-.073-.427-.217-.087-.144-.104-.39-.052-.739l.59-3.824-.165-.583.009-.053L15.946 9l.044.026-.704 4.523Zm4.164 0a2.345 2.345 0 0 0-.022.442c.009.101.06.15.152.15a.211.211 0 0 0 .096-.026.332.332 0 0 0 .087-.062l.052.036a1.37 1.37 0 0 1-.312.473.67.67 0 0 1-.479.182c-.197 0-.34-.073-.426-.217-.087-.144-.104-.39-.052-.739l.048-.312a3.727 3.727 0 0 1-.357.462c-.204.23-.44.428-.7.589a1.454 1.454 0 0 1-.765.233c-.226 0-.4-.074-.52-.22a1.145 1.145 0 0 1-.236-.576 2.519 2.519 0 0 1 .01-.752l.286-1.857-.165-.583.008-.053 1.131-.327.044.027-.417 2.697c-.052.343-.042.589.03.74a.36.36 0 0 0 .335.224.958.958 0 0 0 .461-.141 2.99 2.99 0 0 0 .51-.367c.14-.124.273-.258.395-.4l.279-1.816-.166-.583.01-.053 1.13-.327.044.027-.491 3.13Zm4.427-2.53a1.103 1.103 0 0 0-.339-.46.8.8 0 0 0-.504-.168 1.521 1.521 0 0 0-.709.195c-.262.14-.5.323-.705.54-.103.106-.2.22-.288.34l.378-2.437L21.67 9l-1.134.327-.009.053.165.583-.729 4.734.035.027.808-.3c.059.043.12.082.184.118.214.121.481.181.8.181.303.002.6-.079.861-.234.277-.165.517-.386.705-.65.21-.292.37-.618.474-.964.115-.38.172-.776.17-1.174a1.757 1.757 0 0 0-.122-.68v-.002Zm-.913 1.928c-.064.26-.159.511-.283.747a1.86 1.86 0 0 1-.4.527.677.677 0 0 1-.488.195.67.67 0 0 1-.478-.218 1.58 1.58 0 0 1-.324-.546l.283-1.823a3.46 3.46 0 0 1 .563-.484c.27-.182.5-.274.692-.274a.428.428 0 0 1 .409.248c.086.165.13.422.13.77 0 .29-.034.577-.104.858" fill="currentColor"></path></symbol><symbol id="alert-error" viewBox="0 0 19 19"><title>alert-error</title><g fill="none" stroke="currentColor" stroke-miterlimit="10"><circle cx="9.5" cy="9.5" r="6"></circle><path d="m11.5 7.5-2 2 2 2m-4-4 2 2-2 2" stroke-linecap="square"></path></g></symbol><symbol id="alert-info" viewBox="0 0 19 19"><title>alert-info</title><circle cx="9.5" cy="9.5" r="6" fill="none" stroke="currentColor" stroke-linecap="square" stroke-miterlimit="10"></circle><circle fill="currentColor" cx="9.5" cy="6.5" r="0.65"></circle><path d="M9.5 8.5v4" fill="none" stroke="currentColor" stroke-linecap="square" stroke-miterlimit="10"></path></symbol><symbol id="alert-success" viewBox="0 0 19 19"><title>alert-success</title><g fill="none" stroke="currentColor" stroke-linecap="square" stroke-miterlimit="10"><path d="m6.5 9.93 1.71 1.71 4.29-4.28"></path><circle cx="9.5" cy="9.5" r="6"></circle></g></symbol><symbol id="alert-warning" viewBox="0 0 19 19"><title>alert-warning</title><path fill="none" stroke="currentColor" stroke-miterlimit="10" d="m9.5 3.5-7 12h14l-7-12z"></path><circle fill="currentColor" cx="9.5" cy="13.53" r="0.65"></circle><path stroke-linecap="square" fill="none" stroke="currentColor" stroke-miterlimit="10" d="M9.5 11.53v-4"></path></symbol><symbol id="broken-image" viewBox="0 0 17 19"><title>broken-image</title><g fill="none" stroke="currentColor" stroke-miterlimit="10"><circle cx="12.5" cy="8.5" r="2"></circle><path d="m.5 14.5 4-7 3.75 7"></path><path stroke-linecap="square" d="M.5 4.5h16v10H.5zm15-2-14 14"></path><path d="m7.5 14.4 2-2.9 2 3"></path></g></symbol><symbol id="checkmark" viewBox="0 0 19 19"><title>checkmark</title><path fill="none" stroke="currentColor" stroke-linecap="square" stroke-miterlimit="10" d="m2.5 10.5 4 4 10-10"></path></symbol><symbol id="contact-email" viewBox="0 0 15 19"><title>contact-email</title><g fill="none" stroke="currentColor" stroke-miterlimit="10"><path stroke-linecap="square" d="M.5 5.5h14v8H.5z"></path><path d="m10.5 9.5 4 4m-14-8 7 6 7-6m-10 4-4 4"></path></g></symbol><symbol id="contact-phone" viewBox="0 0 9 19"><title>contact-phone</title><g fill="none" stroke="currentColor" stroke-miterlimit="10"><path d="M.5 2.5h8v14h-8zm0 11h8m-8-9h8"></path><circle cx="4.5" cy="14.5" r="1"></circle></g></symbol><symbol id="customization" viewBox="0 0 19 19"><title>customization</title><path d="M12.504.717 2.424 12.219l1.785 1.566L14.291 2.281ZM1.65 13.109l-.462 2.329 2.244-.76Z" fill="currentColor"></path><path d="m8.598 10.592-4.56 5.214a8.313 8.313 0 0 0 5.046 2.16z" fill="#3175de"></path><path d="m17.943 9.132-7.339.487 5.712 5.011a8.313 8.313 0 0 0 1.627-5.463z" fill="#f9b900"></path><path d="m9.785 10.486.499 7.469a8.313 8.313 0 0 0 5.26-2.375z" fill="#00ac37"></path><path d="M17.813 7.956a8.313 8.313 0 0 0-2.791-4.655l-4.536 5.13z" fill="#ea2c35"></path></symbol><symbol id="forbidden" viewBox="0 0 13 19"><title>forbidden</title><g fill="none" stroke="currentColor" stroke-miterlimit="10"><circle cx="6.5" cy="9.5" r="6"></circle><path stroke-linecap="square" d="m2.5 5.5 8 8"></path></g></symbol><symbol id="locked" viewBox="0 0 19 19"><title>locked</title><g fill="none" stroke="currentColor" stroke-miterlimit="10"><path d="M13.5 7.5v-1a4 4 0 0 0-8 0v1m-2 0h12v8h-12z"></path><circle cx="9.5" cy="10.68" r="1.18"></circle><path stroke-linecap="square" d="M9.5 13.5v-1.64"></path></g></symbol><symbol id="logo" viewBox="0 0 24 24"><title>logo</title><path d="M15.72 13.61h4.67l-6-10.47-3.5 2 4.87 8.45zm-5.17 1v-1h3.68l-3.92-6.79-3.51 2 2.75 4.78v1zm-7.83-2.19.67 1.19h4.67l-1.85-3.2-3.49 2zm11.51 1.19v1.69a2 2 0 0 0-1.23-.37 2.08 2.08 0 0 0 0 4.16 2.12 2.12 0 0 0 1.19-.37V19h1v-5.39zm-6.17 0v1.69a2 2 0 0 0-1.19-.37 2.08 2.08 0 0 0 0 4.16 2.1 2.1 0 0 0 1.19-.37V19h1v-5.39zm12.22 4.08c0 .81.72 1.39 1.88 1.39.94 0 1.72-.41 1.72-1.32 0-.63-.35-1-1.17-1.15l-.64-.13c-.41-.08-.69-.16-.69-.4s.27-.39.62-.39.71.25.72.55h1c-.05-.78-.68-1.31-1.7-1.31s-1.67.57-1.67 1.32c0 .92.74 1.06 1.38 1.18l.53.1c.38.07.54.18.54.4s-.19.39-.64.39c-.65 0-.86-.34-.87-.63zM18.91 19h1v-4h-1v.32a2 2 0 0 0-1.19-.37 2.08 2.08 0 0 0 0 4.16 2.12 2.12 0 0 0 1.19-.37V19zM3.39 19h1v-4h-1v.32a2 2 0 0 0-1.19-.37 2.08 2.08 0 1 0 0 4.16 2.12 2.12 0 0 0 1.19-.37V19zm7.16 0v-4h-1v4zm-9.46-2a1.15 1.15 0 1 1 1.15 1.15A1.15 1.15 0 0 1 1.09 17zm4.68 0a1.15 1.15 0 1 1 1.15 1.15A1.14 1.14 0 0 1 5.77 17zm10.84 0a1.15 1.15 0 1 1 1.15 1.15A1.15 1.15 0 0 1 16.61 17zm-4.67 0a1.15 1.15 0 1 1 1.15 1.15A1.14 1.14 0 0 1 11.94 17z" fill="currentColor"></path></symbol><symbol id="personalisation-flag" viewBox="0 0 15 19"><title>personalisation-flag</title><g fill="none" stroke="currentColor" stroke-miterlimit="10"><path d="M14.5 13.5H.5v-10h14z"></path><path stroke-linecap="square" d="M7.5 5.5v6m3-3h-6m-4-6v15"></path></g></symbol><symbol id="personalization" viewBox="0 0 19 19"><title>personalization</title><path d="m1.188 15.438.475-2.375 1.78 1.544zM12.23.95 2.376 12.231l1.782 1.544 9.856-11.162z" fill="currentColor"></path><path d="M12.943 6.176 9.5 15.437h1.9l.594-1.662h3.324l.594 1.662h1.9l-3.442-9.26h-1.426zm.713 2.73 1.187 3.324h-2.375l1.188-3.324zm-12.47 7.72v1.187h16.626v-1.188H1.187z" fill="#0286cd"></path></symbol><symbol fill="none" id="product" viewBox="0 0 24 24"><title>product</title><path fill-rule="evenodd" clip-rule="evenodd" d="M3.218 2h5.115L12 4.75 15.667 2h5.135l2.405 10.82-5.12.816V22H5.913v-8.357l-5.388-.819L3.218 2Zm2.695 9.62V8.87h2V20h8.174V8.87h2v2.741l2.706-.431L19.198 4h-2.865L12 7.25 7.667 4H4.782l-1.786 7.177 2.917.443Z" fill="#000"></path></symbol><symbol id="rating-active" viewBox="0 0 19 19"><title>rating-active</title><path d="m9.5 14.26 5.86 4.26-2.23-6.91L19 7.35h-7.25L9.5.48 7.25 7.35H0l5.87 4.26-2.24 6.91z" fill="currentColor"></path></symbol><symbol id="rating-inactive" viewBox="0 0 19 19"><title>rating-inactive</title><path d="M15.01 8.644h-4.204L9.5 4.651 8.195 8.644H3.99l3.407 2.475-1.304 4.007L9.5 12.652l3.397 2.474-1.294-4.008zM19 7.348l-5.874 4.266 2.23 6.906L9.5 14.254 3.626 18.52l2.248-6.906L0 7.348h7.255L9.5.48l2.246 6.868z" fill="currentColor"></path></symbol><symbol id="size-guide" viewBox="0 0 19 19"><title>size-guide</title><g fill="none" stroke="currentColor" stroke-miterlimit="10"><path d="M.5 6.5h18v6H.5z"></path><path stroke-linecap="square" d="M3.5 12.5v-3m3 3v-2m3 2v-3m6 3v-3m-3 3v-2"></path></g></symbol><symbol id="tooltip" viewBox="0 0 14 24"><title>tooltip</title><path fill="currentColor" d="M.49 7.22A6.14 6.14 0 0 1 7 1.76a5.88 5.88 0 0 1 6.25 6c0 3.62-2.6 5.61-5.58 6.07V17H5.1v-5.13c3 0 5.67-.91 5.67-4.06A3.58 3.58 0 0 0 6.94 4.1 3.68 3.68 0 0 0 3 7.22zM5.1 22v-2.68h2.54V22z"></path></symbol><symbol id="usp-checkmark" viewBox="0 0 17 19"><title>usp-checkmark</title><path fill="none" stroke="currentColor" stroke-linecap="square" stroke-miterlimit="10" d="m1.5 10.5 4 4 10-10"></path></symbol><symbol id="usp-delivery-cash" viewBox="0 0 24 24"><title>usp-delivery-cash</title><g fill="none" fill-rule="evenodd"><path d="m15.235 4.5-1.312 3h-3.846l-1.312-3h6.47Z" stroke="currentColor"></path><path d="M12.002 18.5c2.279 0 4.575-.565 5.861-1.76.364-.34.57-.763.623-1.269.059-.567-.067-1.227-.356-1.98-.617-1.609-1.967-3.602-4.034-5.991h-4.2c-2.06 2.395-3.407 4.392-4.024 6-.29.754-.416 1.413-.359 1.98.051.503.255.924.615 1.26 1.281 1.19 3.586 1.76 5.874 1.76Z" stroke="currentColor"></path><path d="M12 15.57v-.68a2 2 0 0 1-1-.299l.16-.46c.295.199.644.303 1 .299a.71.71 0 0 0 .795-.613.548.548 0 0 0 .005-.057c0-.37-.26-.6-.76-.81-.7-.27-1.12-.58-1.12-1.17a1.12 1.12 0 0 1 1-1.1V10h.42v.66c.312.002.617.081.89.23l-.17.45a1.688 1.688 0 0 0-.86-.23c-.52 0-.72.31-.72.59 0 .28.25.53.84.77s1 .64 1 1.24a1.18 1.18 0 0 1-1.07 1.16v.7H12Z" fill="currentColor"></path><path d="M12 15.57v-.68a2 2 0 0 1-1-.299l.16-.46c.295.199.644.303 1 .299a.71.71 0 0 0 .795-.613.548.548 0 0 0 .005-.057c0-.37-.26-.6-.76-.81-.7-.27-1.12-.58-1.12-1.17a1.12 1.12 0 0 1 1-1.1V10h.42v.66c.312.002.617.081.89.23l-.17.45a1.688 1.688 0 0 0-.86-.23c-.52 0-.72.31-.72.59 0 .28.25.53.84.77s1 .64 1 1.24a1.18 1.18 0 0 1-1.07 1.16v.7H12Z" stroke="currentColor" stroke-width="0.37"></path></g></symbol><symbol fill="none" id="usp-delivery-delay" viewBox="0 0 24 24"><title>usp-delivery-delay</title><path fill-rule="evenodd" clip-rule="evenodd" d="M13.143 12.937a1.241 1.241 0 0 1-1.077.797c-.631 0-1.143-.51-1.143-1.14v-.045c.014-.487.326-.916.787-1.077V8.07h.753v3.382c.326.141.58.41.701.743h1.797v.743h-1.818Z" fill="currentColor"></path><path d="M12 19a7 7 0 1 0 0-14 7 7 0 0 0 0 14Z" stroke="currentColor"></path></symbol><symbol id="usp-delivery-evening" viewBox="0 0 24 24"><title>usp-delivery-evening</title><path d="M11.544 8.404a5.3 5.3 0 0 0-2.31 7.05 5.15 5.15 0 0 0 6.94 2.4 4.832 4.832 0 0 0 1.84-1.511 4.64 4.64 0 0 1-5.7-2.49 4.905 4.905 0 0 1-.52-2 5.15 5.15 0 0 1 2-4 6.194 6.194 0 0 0-2.25.55Zm7.47 4.7-3-3m3 0-3 3m-7.66-4.75-3-3m3 0-3 3" fill="none" fill-rule="evenodd" stroke="currentColor" stroke-width="1.001"></path></symbol><symbol fill="none" id="usp-delivery-same-day" viewBox="0 0 24 24"><title>usp-delivery-same-day</title><path d="M5 14.469h2m-3-2h3m0-2H3" stroke="currentColor" stroke-linecap="square"></path><path d="M8.568 17c.374.365.788.688 1.236.962 3.302 2.025 7.626.996 9.656-2.296a6.987 6.987 0 0 0-2.305-9.628A7.03 7.03 0 0 0 7.72 8" stroke="currentColor"></path><path fill-rule="evenodd" clip-rule="evenodd" d="M14.72 12.868a1.24 1.24 0 0 1-1.077.797 1.14 1.14 0 0 1-1.143-1.14v-.045c.014-.488.326-.917.787-1.077V8h.753v3.382c.326.14.58.409.701.743h1.797v.743H14.72Z" fill="currentColor"></path></symbol><symbol id="usp-delivery-store" viewBox="0 0 24 24"><title>usp-delivery-store</title><g stroke="currentColor" fill="none" fill-rule="evenodd"><path stroke-width="1.042" d="M5.576 6.419h12.498l.792 4.042v1.558H4.773v-1.56zm.626 11.984v-6.384m11.302 6.012V12.02"></path><path stroke-width="1.001" stroke-linecap="square" d="M3.896 18.46h16.333"></path><path stroke-width="1.042" d="M10.402 12.02v6.337M3 18.46h17.733"></path><path stroke-width="0.754" d="m16.029 15.911-.868.98m.868-2.585-2.417 2.706"></path></g></symbol><symbol id="usp-delivery" viewBox="0 0 19 19"><title>usp-delivery</title><g fill="none" stroke="currentColor" stroke-miterlimit="10"><path d="M13.42 13.5H9.5"></path><path stroke-linecap="square" d="M4.5 5.5h10l4 3v5h-2m-10 0h-2m0-6h-4"></path><circle cx="8" cy="13" r="1.5"></circle><circle cx="15" cy="13" r="1.5"></circle><path stroke-linecap="square" d="M1.5 9.5h3m-2 2h2"></path></g></symbol><symbol id="usp-exchange" viewBox="0 0 24 24"><title>usp-exchange</title><g stroke="currentColor" stroke-width="1.145" fill="none" fill-rule="evenodd"><path d="m12.982 12.184 2.671 3.07-2.671 3.08m-8.41-3.079h10.76M9.623 5.374l-2.66 3.08 2.66 3.07"></path><path stroke-linecap="round" d="M7.273 8.454h12.01v6.8m-1.481.001h1.48M4.572 7.444v7.811m1.48 0h-1.48"></path></g></symbol><symbol id="usp-free-returns" viewBox="0 0 19 19"><title>usp-free-returns</title><g fill="none" stroke="currentColor" stroke-miterlimit="10"><path stroke-linecap="square" d="M16.5 11.5h-2m3-2h-3m0-4H.5v8h14"></path><path d="M.5 7.5h11m-8 0 4 6m-2-6 4 6m-2-6 4 6"></path><path stroke-linecap="square" d="M14.5 7.5h4"></path></g></symbol><symbol id="usp-gift-card" viewBox="0 0 24 24"><title>usp-gift-card</title><path d="M4.5 17.5h15v-10h-15zm1-8h13m-7 3h5m-5 2h4" fill="none" fill-rule="evenodd" stroke-linecap="square" stroke="currentColor"></path></symbol><symbol id="usp-klarna" viewBox="0 0 24 24"><title>usp-klarna</title><g fill="none" fill-rule="evenodd"><path d="M9.327 1.182H6.718a6.67 6.67 0 0 1-2.69 5.39l-1.037.774L7 12.8h3.282L6.6 7.773a9.243 9.243 0 0 0 2.727-6.591M0 12.79h2.673V1.183H0zm12.136-2.854a1.5 1.5 0 1 0 .01 0h-.01Z" fill="currentColor" transform="translate(6 5)"></path><path d="M11.227 2.28a.587.587 0 0 0 .591-.59.588.588 0 0 0-.59-.59.588.588 0 0 0-.592.59c0 .328.263.59.591.59Zm0-1.071c.263 0 .482.218.482.481a.486.486 0 0 1-.482.482.486.486 0 0 1-.481-.482c0-.263.219-.481.481-.481Zm-.087.547h.11l.109.24h.11l-.11-.24c.065-.022.11-.088.11-.175 0-.11-.089-.197-.22-.197h-.219v.612h.11v-.24Zm0-.285h.11c.065 0 .109.044.109.088 0 .065-.022.087-.11.087h-.11v-.175Z" fill="#000" transform="translate(6 5)"></path></g></symbol><symbol id="usp-sale" viewBox="0 0 24 24"><title>usp-sale</title><g fill="none" fill-rule="evenodd"><path d="m14.657 5.65 2.14 1.987L18.5 6.482V18.5h-13V6.482l1.702 1.155L9.343 5.65 12 7.623l2.657-1.974Z" stroke="currentColor"></path><path d="M6.13 3.54a1.761 1.761 0 1 0 0 3.522 1.761 1.761 0 0 0 0-3.523Zm0 1a.76.76 0 1 1 0 1.52.76.76 0 0 1 0-1.52ZM1.76 0a1.76 1.76 0 1 0 0 3.52 1.76 1.76 0 0 0 0-3.52Zm0 1.001a.76.76 0 1 1 0 1.519.76.76 0 0 1 0-1.519ZM6.37.084l.76.652-5.36 6.25-.76-.652z" transform="translate(8 9)" fill="currentColor" fill-rule="nonzero"></path></g></symbol><symbol id="arrow-back" viewBox="0 0 16 24"><title>arrow-back</title><g fill="none" stroke="currentColor" stroke-miterlimit="10" stroke-width="2"><path d="M15 18v-6H2"></path><path d="m6.5 7-5 5 5 5"></path></g></symbol><symbol id="arrow-down" viewBox="0 0 16 24"><title>arrow-down</title><path fill="none" stroke="currentColor" stroke-miterlimit="10" stroke-width="2" d="M1.5 9 8 15.5 14.5 9"></path></symbol><symbol id="arrow-left-long" viewBox="0 0 24 24"><title>arrow-left-long</title><path fill="none" stroke="currentColor" stroke-miterlimit="10" stroke-width="2" d="m6.4 17-5-5 5-5M2 12h22"></path></symbol><symbol id="arrow-left" viewBox="0 0 10 24"><title>arrow-left</title><path fill="none" stroke="currentColor" stroke-miterlimit="10" stroke-width="2" d="M8 5.5 1.5 12 8 18.5"></path></symbol><symbol id="arrow-right-long" viewBox="0 0 24 24"><title>arrow-right-long</title><path d="m17.59 7 5 5-5 5M0 12h22" fill="none" stroke="currentColor" stroke-miterlimit="10" stroke-width="2"></path></symbol><symbol id="arrow-right" viewBox="0 0 10 24"><title>arrow-right</title><path fill="none" stroke="currentColor" stroke-miterlimit="10" stroke-width="2" d="M2 5.5 8.5 12 2 18.5"></path></symbol><symbol id="arrow-up" viewBox="0 0 16 24"><title>arrow-up</title><path fill="none" stroke="currentColor" stroke-miterlimit="10" stroke-width="2" d="M1.5 14.5 8 8l6.5 6.5"></path></symbol><symbol id="bag-active" viewBox="0 0 16 24"><title>bag-active</title><g stroke="currentColor" stroke-miterlimit="10" stroke-width="2"><path fill="currentColor" d="M1 7h14v14H1z"></path><path fill="none" d="M11 10V3H5v7"></path></g></symbol><symbol id="bag-inactive" viewBox="0 0 16 24"><title>bag-inactive</title><g fill="none" stroke="currentColor" stroke-miterlimit="10" stroke-width="2"><path d="M1 7h14v14H1z"></path><path d="M11 10V3H5v7"></path></g></symbol><symbol id="calendar-active" viewBox="0 0 20 24"><title>calendar-active</title><g stroke="currentColor" stroke-miterlimit="10"><path fill="currentColor" stroke-width="2.011" d="M1 10h18v11H1z"></path><path fill="none" stroke-width="2" d="M1 4h18v6H1zm14-3v6M5 7V1"></path></g></symbol><symbol id="calendar-inactive" viewBox="0 0 20 24"><title>calendar-inactive</title><g fill="none" stroke="currentColor" stroke-miterlimit="10"><path stroke-width="2.011" d="M1 10h18v11H1z"></path><path stroke-width="2" d="M1 4h18v6H1zm14-3v6M5 7V1"></path></g></symbol><symbol id="chat" viewBox="0 0 22 24"><title>chat</title><path d="M21 19V3H1v16h5v3l4-3h11zM4 7h14M4 11h14M4 15h14" fill="none" stroke="currentColor" stroke-miterlimit="10" stroke-width="2"></path></symbol><symbol id="checkbox-checkmark" viewBox="0 0 16 24"><title>checkbox-checkmark</title><path fill="none" stroke="currentColor" stroke-miterlimit="10" stroke-width="2" d="m1 13 4 4L15 7"></path></symbol><symbol id="checkmark-full" viewBox="0 0 24 24"><title>checkmark-full</title><g fill="none" fill-rule="evenodd"><circle fill="currentColor" cx="12" cy="12" r="12"></circle><path fill="#fff" d="m9 15.586 9.293-9.293 1.414 1.414L9 18.414l-4.707-4.707 1.414-1.414z"></path></g></symbol><symbol id="clipboard" viewBox="0 0 24 24"><title>clipboard</title><g fill="none" fill-rule="evenodd"><path d="M0 24h24V0H0z"></path><path d="M18 2v3.994h3.994v16h-16V18H2V2h16Zm1.984 6.004H8.004v11.98h11.98V8.004ZM16 4H4v12h1.994V5.995L16 5.994V4Z" fill="currentColor" fill-rule="nonzero"></path></g></symbol><symbol id="close" viewBox="0 0 18 24"><title>close</title><path d="m17 4-8 8 8 8M1 4l8 8-8 8" fill="none" stroke="currentColor" stroke-miterlimit="10" stroke-width="2"></path></symbol><symbol id="cross-small" viewBox="0 0 14 24"><title>cross-small</title><path d="m13 6-6 6 6 6M1 6l6 6-6 6" fill="none" stroke="currentColor" stroke-miterlimit="10" stroke-width="2"></path></symbol><symbol id="download" viewBox="0 0 24 24"><title>download</title><g fill="currentColor" fill-rule="evenodd"><path d="M3 21v-8h2v6h14v-6h2v8H3z"></path><path d="m12 16-5.707-5.707 1.414-1.414L11 12.17V2.586h2v9.585l3.293-3.292 1.414 1.414L12 16z"></path></g></symbol><symbol id="dropdown" viewBox="0 0 16 24"><title>dropdown</title><path fill="none" stroke="currentColor" stroke-miterlimit="10" stroke-width="2" d="M1.5 9 8 15.5 14.5 9"></path></symbol><symbol id="edit" viewBox="0 0 22 24"><title>edit</title><path d="M7 20 20 7l-4.02-4L3 16l-1 5 5-1zm-3-4 3 3m7-13 3 3" fill="none" stroke="currentColor" stroke-miterlimit="10" stroke-width="2"></path></symbol><symbol fill="none" id="external-link" viewBox="0 0 24 24"><title>external-link</title><path fill-rule="evenodd" clip-rule="evenodd" d="M19.586 3H15V1h8v8h-2V4.414l-7.293 7.293-1.414-1.414L19.586 3Z" fill="currentColor"></path><path fill-rule="evenodd" clip-rule="evenodd" d="M1 3h12v2H3v16h16V11h2v12H1V3Z" fill="currentColor"></path></symbol><symbol fill="none" id="filter" viewBox="0 0 24 24"><title>filter</title><mask id="a" fill="#fff"><path fill-rule="evenodd" clip-rule="evenodd" d="M5 6H3v2h2V6ZM3 4H1v6h6V8h16V6H7V4H3Zm18 13h-2v2h2v-2Zm-2-2h-2v2H1v2h16v2h6v-6h-4Z"></path></mask><path d="M3 6V4H1v2h2Zm2 0h2V4H5v2ZM3 8H1v2h2V8Zm2 0v2h2V8H5ZM1 4V2h-2v2h2Zm0 6h-2v2h2v-2Zm6 0v2h2v-2H7Zm0-2V6H5v2h2Zm16 0v2h2V8h-2Zm0-2h2V4h-2v2ZM7 6H5v2h2V6Zm0-2h2V2H7v2Zm12 13v-2h-2v2h2Zm2 0h2v-2h-2v2Zm-2 2h-2v2h2v-2Zm2 0v2h2v-2h-2Zm-4-4v-2h-2v2h2Zm0 2v2h2v-2h-2ZM1 17v-2h-2v2h2Zm0 2h-2v2h2v-2Zm16 0h2v-2h-2v2Zm0 2h-2v2h2v-2Zm6 0v2h2v-2h-2Zm0-6h2v-2h-2v2ZM3 8h2V4H3v4Zm2 0V6H1v2h4Zm0-2H3v4h2V6ZM3 6v2h4V6H3ZM1 6h2V2H1v4Zm2 0V4h-4v2h4Zm0 2V6h-4v2h4Zm0 2V8h-4v2h4Zm0-2H1v4h2V8Zm2 0H3v4h2V8Zm2 0H5v4h2V8ZM5 8v2h4V8H5Zm18-2H7v4h16V6Zm-2 0v2h4V6h-4ZM7 8h16V4H7v4ZM5 4v2h4V4H5Zm0 2h2V2H5v4ZM3 6h2V2H3v4Zm16 13h2v-4h-2v4Zm2 0v-2h-4v2h4Zm0-2h-2v4h2v-4Zm-2 0v2h4v-2h-4Zm-2 0h2v-4h-2v4Zm2 0v-2h-4v2h4ZM1 19h16v-4H1v4Zm2 0v-2h-4v2h4Zm14-2H1v4h16v-4Zm2 4v-2h-4v2h4Zm0-2h-2v4h2v-4Zm2 0h-2v4h2v-4Zm2 0h-2v4h2v-4Zm-2 0v2h4v-2h-4Zm0-2v2h4v-2h-4Zm0-2v2h4v-2h-4Zm0 2h2v-4h-2v4Zm-2 0h2v-4h-2v4Z" fill="currentColor" mask="url(#a)"></path></symbol><symbol fill="none" id="fullscreen" viewBox="0 0 24 24"><title>fullscreen</title><path fill-rule="evenodd" clip-rule="evenodd" d="M21 2h-7v2h4.586l-5.293 5.293 1.414 1.414L20 5.414V10h2V2h-1ZM4 14v4.586l5.293-5.293 1.414 1.414L5.414 20H10v2H2v-8h2Z" fill="currentColor"></path></symbol><symbol id="hamburger" viewBox="0 0 24 24"><title>hamburger</title><path d="M0 6h24M0 12h24M0 18h24" fill="none" stroke="currentColor" stroke-miterlimit="10" stroke-width="2"></path></symbol><symbol fill="none" id="hd-filled" viewBox="0 0 24 24"><title>hd-filled</title><path fill-rule="evenodd" clip-rule="evenodd" d="M24 2H0v20h24V2ZM9.06 12.815V17h1.851V7H9.06v4.087H5.85V7H4v10h1.85v-4.185h3.21Zm10.927.323a44.552 44.552 0 0 0 0-2.262 9.502 9.502 0 0 0-.067-.94 3.367 3.367 0 0 0-.186-.787 2.87 2.87 0 0 0-.333-.688c-.338-.506-.737-.876-1.199-1.11C17.741 7.117 17.186 7 16.538 7h-3.422v10h3.422c.648 0 1.203-.117 1.664-.351.462-.234.861-.604 1.199-1.11.142-.215.253-.44.333-.674a3.61 3.61 0 0 0 .186-.786c.036-.29.058-.604.067-.941Zm-1.851-2.15c.009.282.013.619.013 1.012s-.004.735-.013 1.025c-.01.281-.027.525-.053.73a2.313 2.313 0 0 1-.12.506c-.045.14-.111.267-.2.38-.31.411-.772.617-1.385.617h-1.411V8.742h1.411c.613 0 1.074.206 1.385.618.089.112.155.238.2.379.053.14.093.313.12.52.026.196.044.44.053.73Z" fill="currentColor"></path></symbol><symbol fill="none" id="hd-outline" viewBox="0 0 24 24"><title>hd-outline</title><path fill-rule="evenodd" clip-rule="evenodd" d="M2 4h20v16H2V4ZM0 22V2h24v20H0Zm9.06-9.185V17h1.851V7H9.06v4.087H5.85V7H4v10h1.85v-4.185h3.21Zm10.927.323a44.552 44.552 0 0 0 0-2.262 9.502 9.502 0 0 0-.067-.94 3.367 3.367 0 0 0-.186-.787 2.87 2.87 0 0 0-.333-.688c-.338-.506-.737-.876-1.199-1.11C17.741 7.117 17.186 7 16.538 7h-3.422v10h3.422c.648 0 1.203-.117 1.664-.351.462-.234.861-.604 1.199-1.11.142-.215.253-.44.333-.674a3.61 3.61 0 0 0 .186-.786c.036-.29.058-.604.067-.941Zm-1.851-2.15c.009.282.013.619.013 1.012s-.004.735-.013 1.025c-.01.281-.027.525-.053.73a2.313 2.313 0 0 1-.12.506c-.045.14-.111.267-.2.38-.31.411-.772.617-1.385.617h-1.411V8.742h1.411c.613 0 1.074.206 1.385.618.089.112.155.238.2.379.053.14.093.313.12.52.026.196.044.44.053.73Z" fill="currentColor"></path></symbol><symbol id="hide-active" viewBox="0 0 24 24"><title>hide-active</title><g fill="none" stroke="currentColor" stroke-miterlimit="10" stroke-width="2"><circle cx="12" cy="10.95" r="3.81"></circle><path d="M12 17.35A12.31 12.31 0 0 1 2 11.9a12.31 12.31 0 0 1 10-5.45 12.31 12.31 0 0 1 10 5.45 12.31 12.31 0 0 1-10 5.45zM22 2 2 22"></path></g></symbol><symbol id="hide-inactive" viewBox="0 0 24 24"><title>hide-inactive</title><g fill="none" stroke="currentColor" stroke-miterlimit="10" stroke-width="2"><circle cx="12" cy="10.95" r="3.81"></circle><path d="M12 17.35A12.31 12.31 0 0 1 2 11.9a12.31 12.31 0 0 1 10-5.45 12.31 12.31 0 0 1 10 5.45 12.31 12.31 0 0 1-10 5.45z"></path></g></symbol><symbol id="locate-target" viewBox="0 0 22 24"><title>locate-target</title><g fill="none" stroke="currentColor" stroke-miterlimit="10" stroke-width="2"><circle cx="11" cy="12" r="8"></circle><path d="M11 1v6m0 10v6m11-11h-6M6 12H0"></path></g></symbol><symbol id="lock" viewBox="0 0 24 24"><title>lock</title><g stroke="currentColor" stroke-width="2" fill="none" fill-rule="evenodd"><path d="M3 21h18V9H3z"></path><path d="M13.773 13.773a1.774 1.774 0 1 1-3.547-.001 1.774 1.774 0 0 1 3.547 0Z"></path><path d="M12 18v-2.454" stroke-linecap="square"></path><path d="M18 8.9V8A6 6 0 1 0 6 8v1"></path></g></symbol><symbol id="minus" viewBox="0 0 20 2"><title>minus</title><g fill="none" fill-rule="evenodd"><path d="M0 24h24V0H0z" transform="translate(-2 -11)"></path><path d="M20 1H0" stroke="currentColor" stroke-width="2"></path></g></symbol><symbol id="notification-active" viewBox="0 0 24 24"><title>notification-active</title><g stroke="currentColor" stroke-miterlimit="10" stroke-width="2"><path d="M15 18a3 3 0 0 1-6 0m-7 0h20" fill="none"></path><path fill="currentColor" d="M19 10a7 7 0 0 0-14 0v8h14z"></path><path d="M5.21 2a10.46 10.46 0 0 0-3.52 6m20.62 0a10.46 10.46 0 0 0-3.52-6" fill="none"></path></g></symbol><symbol id="notification-inactive" viewBox="0 0 24 24"><title>notification-inactive</title><path d="M15 18a3 3 0 0 1-6 0m-7 0h20m-3-8a7 7 0 0 0-14 0v8h14zM5.21 2a10.46 10.46 0 0 0-3.52 6m20.62 0a10.46 10.46 0 0 0-3.52-6" fill="none" stroke="currentColor" stroke-miterlimit="10" stroke-width="2"></path></symbol><symbol fill="none" id="pause-outline" viewBox="0 0 24 24"><title>pause-outline</title><path d="M9 4H7v16h2V4Zm8 0h-2v16h2V4Z" fill="currentColor"></path></symbol><symbol id="pin-small" viewBox="0 0 9 19"><title>pin-small</title><g fill="none" stroke="currentColor" stroke-miterlimit="10"><circle cx="4.5" cy="7.5" r="4" stroke-linecap="square"></circle><path d="M1.17 9.71 4.5 15.5l3.33-5.79"></path></g></symbol><symbol id="pin" viewBox="0 0 14 24"><title>pin</title><g fill="none" stroke="currentColor" stroke-miterlimit="10" stroke-width="2"><circle cx="7" cy="9" r="6" stroke-linecap="square"></circle><path d="M2 12.32 7 21l5-8.68"></path></g></symbol><symbol fill="none" id="play-filled" viewBox="0 0 24 24"><title>play-filled</title><path d="M18.5 11.66 5 20.32V3l13.5 8.66Z" fill="currentColor"></path></symbol><symbol fill="none" id="play-outline" viewBox="0 0 24 24"><title>play-outline</title><path fill-rule="evenodd" clip-rule="evenodd" d="M18.5 11.66 5 3v17.32l13.5-8.66Zm-3.704 0L7 6.66v10l7.796-5Z" fill="currentColor"></path></symbol><symbol id="plus" viewBox="0 0 20 24"><title>plus</title><path d="M10 2v20m10-10H0" fill="none" stroke="currentColor" stroke-miterlimit="10" stroke-width="2"></path></symbol><symbol id="profile" viewBox="0 0 20 24"><title>profile</title><g fill="none" stroke="currentColor" stroke-miterlimit="10" stroke-width="2"><path d="M19 20.5 15.63 16H4.38L1 20.5"></path><circle cx="10" cy="8.5" r="4.5"></circle></g></symbol><symbol id="reload" viewBox="0 0 24 24"><title>reload</title><g fill="none" fill-rule="evenodd" stroke="currentColor" stroke-width="2"><path d="M7.827 6.343A8 8 0 1 1 5.484 12v-1" stroke-linecap="square"></path><path d="M2.007 13.427 5.484 9.95l3.478 3.477"></path></g></symbol><symbol fill="none" id="sd-filled" viewBox="0 0 24 24"><title>sd-filled</title><path fill-rule="evenodd" clip-rule="evenodd" d="M24 2H0v20h24V2ZM10.882 15.287c.182-.368.273-.792.273-1.27 0-.442-.06-.838-.178-1.188a2.064 2.064 0 0 0-.573-.884 2.238 2.238 0 0 0-.751-.498 4.73 4.73 0 0 0-1.106-.276l-1.16-.18a1.953 1.953 0 0 1-.533-.137 1.406 1.406 0 0 1-.355-.235.951.951 0 0 1-.219-.332 1.275 1.275 0 0 1-.054-.373c0-.34.118-.63.355-.87.245-.248.623-.373 1.133-.373.319 0 .655.042 1.01.125.355.073.683.257.983.552l1.202-1.202a3.683 3.683 0 0 0-1.38-.884C9.03 7.088 8.443 7 7.77 7c-.529 0-1.002.074-1.42.221a3.053 3.053 0 0 0-1.066.622c-.29.257-.514.57-.669.939a3.02 3.02 0 0 0-.232 1.201c0 .838.232 1.483.697 1.934.218.212.478.387.778.525.3.129.669.226 1.106.29l1.16.18c.246.036.428.078.547.124.118.046.227.115.327.207.2.203.3.474.3.815 0 .396-.145.7-.436.912-.292.211-.724.317-1.297.317a4.4 4.4 0 0 1-1.27-.18 2.48 2.48 0 0 1-1.065-.648L4 15.702c.473.488.997.828 1.57 1.022.583.184 1.243.276 1.98.276.51 0 .983-.064 1.42-.193a3.551 3.551 0 0 0 1.147-.58 2.71 2.71 0 0 0 .765-.94Zm9.104-2.168a42.121 42.121 0 0 0 0-2.224 9.03 9.03 0 0 0-.068-.925 3.202 3.202 0 0 0-.191-.774 2.776 2.776 0 0 0-.341-.677c-.346-.497-.756-.86-1.23-1.09-.473-.231-1.041-.346-1.706-.346h-3.51v9.834h3.51c.665 0 1.233-.115 1.707-.345.473-.23.883-.594 1.229-1.091a2.86 2.86 0 0 0 .34-.663c.092-.24.156-.498.192-.774.037-.285.06-.594.068-.925Zm-1.898-2.114c.01.277.014.608.014.995s-.005.723-.014 1.008a7.34 7.34 0 0 1-.054.719 2.16 2.16 0 0 1-.123.497 1.143 1.143 0 0 1-.205.373c-.319.405-.792.607-1.42.607H14.84V8.796h1.447c.628 0 1.101.202 1.42.607.091.11.16.235.205.373.055.138.095.309.123.511.027.194.045.433.054.718Z" fill="currentColor"></path></symbol><symbol fill="none" id="sd-outline" viewBox="0 0 24 24"><title>sd-outline</title><path fill-rule="evenodd" clip-rule="evenodd" d="M2 4h20v16H2V4ZM0 22V2h24v20H0Zm10.882-6.713c.182-.368.273-.792.273-1.27 0-.442-.06-.838-.178-1.188a2.064 2.064 0 0 0-.573-.884 2.238 2.238 0 0 0-.751-.498 4.73 4.73 0 0 0-1.106-.276l-1.16-.18a1.953 1.953 0 0 1-.533-.137 1.406 1.406 0 0 1-.355-.235.951.951 0 0 1-.219-.332 1.275 1.275 0 0 1-.054-.373c0-.34.118-.63.355-.87.245-.248.623-.373 1.133-.373.319 0 .655.042 1.01.125.355.073.683.257.983.552l1.202-1.202a3.683 3.683 0 0 0-1.38-.884C9.03 7.088 8.443 7 7.77 7c-.529 0-1.002.074-1.42.221a3.053 3.053 0 0 0-1.066.622c-.29.257-.514.57-.669.939a3.02 3.02 0 0 0-.232 1.201c0 .838.232 1.483.697 1.934.218.212.478.387.778.525.3.129.669.226 1.106.29l1.16.18c.246.036.428.078.547.124.118.046.227.115.327.207.2.203.3.474.3.815 0 .396-.145.7-.436.912-.292.211-.724.317-1.297.317a4.4 4.4 0 0 1-1.27-.18 2.48 2.48 0 0 1-1.065-.648L4 15.702c.473.488.997.828 1.57 1.022.583.184 1.243.276 1.98.276.51 0 .983-.064 1.42-.193a3.551 3.551 0 0 0 1.147-.58 2.71 2.71 0 0 0 .765-.94Zm9.104-2.168a42.121 42.121 0 0 0 0-2.224 9.03 9.03 0 0 0-.068-.925 3.202 3.202 0 0 0-.191-.774 2.776 2.776 0 0 0-.341-.677c-.346-.497-.756-.86-1.23-1.09-.473-.231-1.041-.346-1.706-.346h-3.51v9.834h3.51c.665 0 1.233-.115 1.707-.345.473-.23.883-.594 1.229-1.091a2.86 2.86 0 0 0 .34-.663c.092-.24.156-.498.192-.774.037-.285.06-.594.068-.925Zm-1.898-2.114c.01.277.014.608.014.995s-.005.723-.014 1.008a7.34 7.34 0 0 1-.054.719 2.16 2.16 0 0 1-.123.497 1.143 1.143 0 0 1-.205.373c-.319.405-.792.607-1.42.607H14.84V8.796h1.447c.628 0 1.101.202 1.42.607.091.11.16.235.205.373.055.138.095.309.123.511.027.194.045.433.054.718Z" fill="currentColor"></path></symbol><symbol id="search" viewBox="0 0 20 24"><title>search</title><g fill="none" stroke="currentColor" stroke-linecap="square" stroke-miterlimit="10" stroke-width="2"><circle cx="8" cy="10" r="6"></circle><path d="m13 15 5 5"></path></g></symbol><symbol id="share" viewBox="0 0 22 24"><title>share</title><g fill="none" stroke="currentColor" stroke-miterlimit="10" stroke-width="2"><path d="M18 7.9a3 3 0 1 1 3-3 3 3 0 0 1-3 3m0 14a3 3 0 1 1 3-3 3 3 0 0 1-3 3"></path><circle cx="4" cy="11.9" r="3"></circle><path d="m6.65 10.5 8.64-4.32m0 11.44L6.65 13.3"></path></g></symbol><symbol fill="none" id="sound-off-filled" viewBox="0 0 24 24"><title>sound-off-filled</title><path fill-rule="evenodd" clip-rule="evenodd" d="M12 2v20.381l-6.892-5.575H2v-8.4h3.07L12 2Zm3.707 13.993L18 13.7l2.293 2.293 1.414-1.414-2.293-2.293 2.293-2.293-1.414-1.414L18 10.872 15.707 8.58l-1.414 1.414 2.293 2.293-2.293 2.293 1.414 1.414Z" fill="currentColor"></path></symbol><symbol fill="none" id="sound-off-outline" viewBox="0 0 24 24"><title>sound-off-outline</title><path fill-rule="evenodd" clip-rule="evenodd" d="M12 4.286V2l-1.679 1.552-5.25 4.854H2v8.4h3.108l5.263 4.258L12 22.38V4.286Zm-5.86 5.855L10 6.573V18.19l-3.91-3.16-.275-.223H4v-4.4h1.852l.288-.265Zm9.567 5.852L18 13.7l2.293 2.293 1.414-1.414-2.293-2.293 2.293-2.293-1.414-1.414L18 10.872 15.707 8.58l-1.414 1.414 2.293 2.293-2.293 2.293 1.414 1.414Z" fill="currentColor"></path></symbol><symbol fill="none" id="sound-on-filled" viewBox="0 0 24 24"><title>sound-on-filled</title><path fill-rule="evenodd" clip-rule="evenodd" d="M12 22.381V2L5.07 8.406H2v8.4h3.108L12 22.381Zm2-3.095a7 7 0 1 0 0-14v2a5 5 0 0 1 0 10v2Zm3-7a3 3 0 0 1-3 3v-2a1 1 0 1 0 0-2v-2a3 3 0 0 1 3 3Z" fill="currentColor"></path></symbol><symbol fill="none" id="sound-on-outline" viewBox="0 0 24 24"><title>sound-on-outline</title><path fill-rule="evenodd" clip-rule="evenodd" d="M13 2v20.381l-6.892-5.575H3v-8.4h3.07L13 2Zm-2 4.573-4.147 3.833H5v4.4h1.815L11 18.191V6.573Zm4 12.713a7 7 0 1 0 0-14v2a5 5 0 0 1 0 10v2Zm3-7a3 3 0 0 1-3 3v-2a1 1 0 1 0 0-2v-2a3 3 0 0 1 3 3Z" fill="currentColor"></path></symbol><symbol fill="none" id="subtitles-cc-filled" viewBox="0 0 24 24"><title>subtitles-cc-filled</title><path fill-rule="evenodd" clip-rule="evenodd" d="M24 2H0v20h24V2ZM10.107 16.227c.668-.525 1.096-1.303 1.284-2.335H9.402a2.108 2.108 0 0 1-.564 1.009c-.263.257-.64.386-1.128.386-.273 0-.518-.046-.734-.138a1.527 1.527 0 0 1-.522-.373 1.514 1.514 0 0 1-.24-.345 2.317 2.317 0 0 1-.14-.497 6.46 6.46 0 0 1-.085-.76A20.183 20.183 0 0 1 5.96 12c0-.47.009-.856.028-1.16.019-.313.047-.571.084-.774.038-.202.085-.368.141-.497.066-.129.146-.244.24-.345a1.52 1.52 0 0 1 .522-.373c.216-.092.46-.138.734-.138.489 0 .865.133 1.128.4.263.258.447.59.55.995h2.003c-.188-1.032-.616-1.805-1.284-2.32C9.45 7.261 8.65 7 7.71 7c-.583 0-1.091.092-1.524.276a3.693 3.693 0 0 0-1.17.76 3.155 3.155 0 0 0-.593.773 3.64 3.64 0 0 0-.296.884 8.15 8.15 0 0 0-.113 1.036 53.478 53.478 0 0 0 0 2.541c.019.378.056.728.113 1.05.066.313.165.604.296.87.141.268.339.526.593.774.348.332.738.59 1.17.774.433.175.94.262 1.524.262.94 0 1.74-.258 2.397-.773Zm8.61 0c.667-.525 1.095-1.303 1.283-2.335h-1.989a2.108 2.108 0 0 1-.564 1.009c-.263.257-.64.386-1.128.386-.273 0-.518-.046-.734-.138a1.528 1.528 0 0 1-.522-.373 1.514 1.514 0 0 1-.24-.345 2.317 2.317 0 0 1-.14-.497 6.46 6.46 0 0 1-.085-.76A20.183 20.183 0 0 1 14.57 12c0-.47.009-.856.028-1.16.019-.313.047-.571.084-.774.038-.202.085-.368.141-.497.066-.129.146-.244.24-.345a1.52 1.52 0 0 1 .522-.373c.216-.092.46-.138.734-.138.489 0 .865.133 1.128.4.263.258.447.59.55.995H20c-.188-1.032-.616-1.805-1.284-2.32C18.058 7.261 17.26 7 16.32 7c-.583 0-1.091.092-1.524.276a3.693 3.693 0 0 0-1.17.76 3.155 3.155 0 0 0-.593.773 3.64 3.64 0 0 0-.296.884 8.15 8.15 0 0 0-.113 1.036 53.478 53.478 0 0 0 0 2.541c.019.378.057.728.113 1.05.066.313.164.604.296.87.141.268.339.526.593.774.348.332.738.59 1.17.774.433.175.94.262 1.524.262.94 0 1.74-.258 2.397-.773Z" fill="currentColor"></path></symbol><symbol fill="none" id="subtitles-cc-outline" viewBox="0 0 24 24"><title>subtitles-cc-outline</title><path fill-rule="evenodd" clip-rule="evenodd" d="M2 4h20v16H2V4ZM0 22V2h24v20H0Zm10.107-5.773c.668-.525 1.096-1.303 1.284-2.335H9.402a2.108 2.108 0 0 1-.564 1.009c-.263.257-.64.386-1.128.386-.273 0-.518-.046-.734-.138a1.527 1.527 0 0 1-.522-.373 1.514 1.514 0 0 1-.24-.345 2.317 2.317 0 0 1-.14-.497 6.46 6.46 0 0 1-.085-.76A20.183 20.183 0 0 1 5.96 12c0-.47.009-.856.028-1.16.019-.313.047-.571.084-.774.038-.202.085-.368.141-.497.066-.129.146-.244.24-.345a1.52 1.52 0 0 1 .522-.373c.216-.092.46-.138.734-.138.489 0 .865.133 1.128.4.263.258.447.59.55.995h2.003c-.188-1.032-.616-1.805-1.284-2.32C9.45 7.261 8.65 7 7.71 7c-.583 0-1.091.092-1.524.276a3.693 3.693 0 0 0-1.17.76 3.155 3.155 0 0 0-.593.773 3.64 3.64 0 0 0-.296.884 8.15 8.15 0 0 0-.113 1.036 53.478 53.478 0 0 0 0 2.541c.019.378.056.728.113 1.05.066.313.165.604.296.87.141.268.339.526.593.774.348.332.738.59 1.17.774.433.175.94.262 1.524.262.94 0 1.74-.258 2.397-.773Zm8.61 0c.667-.525 1.095-1.303 1.283-2.335h-1.989a2.108 2.108 0 0 1-.564 1.009c-.263.257-.64.386-1.128.386-.273 0-.518-.046-.734-.138a1.528 1.528 0 0 1-.522-.373 1.514 1.514 0 0 1-.24-.345 2.317 2.317 0 0 1-.14-.497 6.46 6.46 0 0 1-.085-.76A20.183 20.183 0 0 1 14.57 12c0-.47.009-.856.028-1.16.019-.313.047-.571.084-.774.038-.202.085-.368.141-.497.066-.129.146-.244.24-.345a1.52 1.52 0 0 1 .522-.373c.216-.092.46-.138.734-.138.489 0 .865.133 1.128.4.263.258.447.59.55.995H20c-.188-1.032-.616-1.805-1.284-2.32C18.058 7.261 17.26 7 16.32 7c-.583 0-1.091.092-1.524.276a3.693 3.693 0 0 0-1.17.76 3.155 3.155 0 0 0-.593.773 3.64 3.64 0 0 0-.296.884 8.15 8.15 0 0 0-.113 1.036 53.478 53.478 0 0 0 0 2.541c.019.378.057.728.113 1.05.066.313.164.604.296.87.141.268.339.526.593.774.348.332.738.59 1.17.774.433.175.94.262 1.524.262.94 0 1.74-.258 2.397-.773Z" fill="currentColor"></path></symbol><symbol fill="none" id="subtitles-filled" viewBox="0 0 24 24"><title>subtitles-filled</title><path fill-rule="evenodd" clip-rule="evenodd" d="M24 2H0v20h24V2Zm-4 12H9v-2h11v2Zm-5 4H4v-2h11v2ZM4 14h3v-2H4v2Zm16 4h-3v-2h3v2Z" fill="currentColor"></path></symbol><symbol fill="none" id="subtitles-outline" viewBox="0 0 24 24"><title>subtitles-outline</title><path fill-rule="evenodd" clip-rule="evenodd" d="M2 4h20v16H2V4ZM0 2h24v20H0V2Zm20 12H9v-2h11v2Zm-5 4H4v-2h11v2ZM4 14h3v-2H4v2Zm16 4h-3v-2h3v2Z" fill="currentColor"></path></symbol><symbol id="wishlist-active" viewBox="0 0 20 24"><title>wishlist-active</title><path fill="currentColor" stroke="currentColor" stroke-miterlimit="10" stroke-width="2" d="M7.38 6H4.42L2 10l8 8 8-8-2.41-4h-2.98L10 9 7.38 6z"></path></symbol><symbol id="wishlist-inactive" viewBox="0 0 20 24"><title>wishlist-inactive</title><path fill="none" stroke="currentColor" stroke-miterlimit="10" stroke-width="2" d="M7.38 6H4.42L2 10l8 8 8-8-2.41-4h-2.98L10 9 7.38 6z"></path></symbol><symbol id="zoom-out" viewBox="0 0 22 24"><title>zoom-out</title><g fill="none" fill-rule="evenodd"><path d="M0 24h24V0H0z"></path><g stroke="currentColor" stroke-width="2"><path d="M10 17a7 7 0 1 1 .001-14.001A7 7 0 0 1 10 17Zm5-2 6 6" stroke-linecap="square"></path><path d="M14 10H6"></path></g></g></symbol><symbol id="zoom" viewBox="0 0 22 24"><title>zoom</title><g fill="none" stroke="currentColor" stroke-miterlimit="10" stroke-width="2"><circle cx="9" cy="10" r="7" stroke-linecap="square"></circle><path stroke-linecap="square" d="m14 15 6 6"></path><path d="M9 6v8m4-4H5"></path></g></symbol><symbol fill="none" id="apple" viewBox="0 0 24 24"><title>apple</title><g clip-path="url(#a)"><path d="M20.425 8.5c-.128.1-2.392 1.37-2.392 4.192 0 3.265 2.88 4.42 2.967 4.449-.013.07-.458 1.582-1.519 3.122-.946 1.355-1.934 2.708-3.438 2.708-1.503 0-1.89-.869-3.626-.869-1.691 0-2.293.898-3.668.898s-2.335-1.254-3.438-2.794C4.033 18.397 3 15.588 3 12.92c0-4.277 2.795-6.546 5.545-6.546 1.462 0 2.68.955 3.598.955.873 0 2.235-1.012 3.898-1.012.63 0 2.894.057 4.384 2.183Zm-5.174-3.993c.688-.812 1.175-1.938 1.175-3.065A2.098 2.098 0 0 0 16.383 1c-1.12.042-2.45.741-3.253 1.668-.63.713-1.218 1.84-1.218 2.981 0 .134.015.267.042.398.099.019.2.028.3.029 1.004 0 2.267-.669 2.996-1.569Z" fill="#000"></path></g><defs><clipPath id="a"><path fill="#fff" transform="translate(3 1)" d="M0 0h18v22H0z"></path></clipPath></defs></symbol><symbol id="facebook" viewBox="0 0 24 24"><title>facebook</title><g fill="none" fill-rule="evenodd"><path d="M0 24h24V0H0z"></path><path d="M23 12.067C23 5.955 18.075 1 12 1S1 5.955 1 12.067C1 17.591 5.023 22.17 10.281 23v-7.734H7.488v-3.199h2.793V9.63c0-2.774 1.642-4.306 4.155-4.306 1.204 0 2.462.216 2.462.216v2.724h-1.387c-1.366 0-1.792.853-1.792 1.728v2.076h3.05l-.487 3.2h-2.563V23C18.977 22.17 23 17.591 23 12.067" fill="#1877F2"></path></g></symbol><symbol id="google" viewBox="0 0 24 24"><title>google</title><g fill="none" fill-rule="evenodd"><path d="M21.56 11.25c0-.78-.07-1.53-.2-2.25H11v4.255h5.92a5.06 5.06 0 0 1-2.195 3.32v2.76h3.555c2.08-1.915 3.28-4.735 3.28-8.085Z" fill="#4285F4" transform="translate(1 1)"></path><path d="M11 22c2.97 0 5.46-.985 7.28-2.665l-3.555-2.76c-.985.66-2.245 1.05-3.725 1.05-2.865 0-5.29-1.935-6.155-4.535H1.17v2.85A10.996 10.996 0 0 0 11 22Z" fill="#34A853" transform="translate(1 1)"></path><path d="M4.845 13.09A6.612 6.612 0 0 1 4.5 11c0-.725.125-1.43.345-2.09V6.06H1.17A10.996 10.996 0 0 0 0 11c0 1.775.425 3.455 1.17 4.94l3.675-2.85Z" fill="#FBBC05" transform="translate(1 1)"></path><path d="M11 4.375c1.615 0 3.065.555 4.205 1.645l3.155-3.155C16.455 1.09 13.965 0 11 0 6.7 0 2.98 2.465 1.17 6.06l3.675 2.85C5.71 6.31 8.135 4.375 11 4.375Z" fill="#EA4335" transform="translate(1 1)"></path><path d="M0 0h22v22H0z" transform="translate(1 1)"></path></g></symbol><symbol id="instagram-filled" viewBox="0 0 24 24"><title>instagram-filled</title><g fill="none" fill-rule="evenodd"><path d="M0 24h24V0H0z"></path><path d="M11.5 20c-2.632 0-2.941-.01-3.971-.059-1.022-.045-1.588-.22-1.969-.368a3.53 3.53 0 0 1-1.293-.84 3.54 3.54 0 0 1-.84-1.292c-.148-.382-.323-.948-.37-1.97C3.01 14.44 3 14.13 3 11.5c0-2.633.01-2.941.058-3.972.046-1.022.22-1.588.368-1.968.2-.518.453-.904.84-1.294a3.55 3.55 0 0 1 1.293-.84c.382-.147.948-.322 1.97-.368C8.56 3.01 8.87 3 11.5 3c2.632 0 2.941.01 3.971.058 1.022.046 1.588.22 1.969.368.517.2.904.453 1.293.84.388.39.64.776.84 1.293.148.38.323.947.37 1.97.047 1.03.057 1.338.057 3.971 0 2.632-.01 2.941-.058 3.971-.046 1.022-.22 1.588-.368 1.969a3.54 3.54 0 0 1-.84 1.293c-.39.388-.777.64-1.293.84-.382.148-.948.323-1.97.368-1.03.048-1.34.059-3.971.059" fill="#fff"></path><path d="M12 2c-2.716 0-3.057.012-4.123.061-1.064.047-1.791.216-2.428.464a4.875 4.875 0 0 0-1.77 1.154 4.875 4.875 0 0 0-1.154 1.77c-.248.637-.417 1.363-.464 2.428C2.012 8.943 2 9.284 2 12s.012 3.057.061 4.123c.047 1.065.216 1.791.464 2.428a4.875 4.875 0 0 0 1.154 1.77 4.875 4.875 0 0 0 1.77 1.154c.637.248 1.364.417 2.428.464C8.943 21.988 9.284 22 12 22s3.057-.012 4.123-.061c1.064-.047 1.791-.216 2.428-.464a4.875 4.875 0 0 0 1.77-1.154 4.875 4.875 0 0 0 1.154-1.77c.248-.637.417-1.363.464-2.428.049-1.066.061-1.407.061-4.123s-.012-3.057-.061-4.123c-.047-1.065-.216-1.791-.464-2.428a4.875 4.875 0 0 0-1.154-1.77 4.875 4.875 0 0 0-1.77-1.154c-.637-.248-1.364-.417-2.428-.464C15.057 2.012 14.716 2 12 2m0 1.802c2.67 0 2.986.01 4.041.058.975.044 1.504.207 1.856.344.467.182.8.399 1.151.748.349.351.566.684.748 1.151.137.352.3.881.344 1.856.048 1.055.058 1.371.058 4.041 0 2.67-.01 2.986-.058 4.041-.044.975-.207 1.504-.344 1.856-.182.467-.399.8-.748 1.151a3.129 3.129 0 0 1-1.151.748c-.352.137-.881.3-1.856.344-1.055.048-1.371.058-4.041.058-2.67 0-2.986-.01-4.041-.058-.975-.044-1.504-.207-1.856-.344a3.129 3.129 0 0 1-1.151-.748 3.129 3.129 0 0 1-.748-1.151c-.137-.352-.3-.881-.344-1.856-.048-1.055-.058-1.371-.058-4.041 0-2.67.01-2.986.058-4.041.044-.975.207-1.504.344-1.856.182-.467.399-.8.748-1.151a3.129 3.129 0 0 1 1.151-.748c.352-.137.881-.3 1.856-.344C9.014 3.812 9.33 3.802 12 3.802" fill="currentColor"></path><path d="M12 15.245a3.245 3.245 0 1 1 0-6.49 3.245 3.245 0 0 1 0 6.49M12 7a5 5 0 1 0 0 10 5 5 0 0 0 0-10m6-1a1 1 0 1 1-2 0 1 1 0 0 1 2 0" fill="currentColor"></path></g></symbol><symbol id="instagram" viewBox="0 0 24 24"><title>instagram</title><g fill="none" fill-rule="evenodd"><path d="M0 24h24V0H0z"></path><path d="M11.5 20c-2.632 0-2.941-.01-3.971-.059-1.022-.045-1.588-.22-1.969-.368a3.53 3.53 0 0 1-1.293-.84 3.54 3.54 0 0 1-.84-1.292c-.148-.382-.323-.948-.37-1.97C3.01 14.44 3 14.13 3 11.5c0-2.633.01-2.941.058-3.972.046-1.022.22-1.588.368-1.968.2-.518.453-.904.84-1.294a3.55 3.55 0 0 1 1.293-.84c.382-.147.948-.322 1.97-.368C8.56 3.01 8.87 3 11.5 3c2.632 0 2.941.01 3.971.058 1.022.046 1.588.22 1.969.368.517.2.904.453 1.293.84.388.39.64.776.84 1.293.148.38.323.947.37 1.97.047 1.03.057 1.338.057 3.971 0 2.632-.01 2.941-.058 3.971-.046 1.022-.22 1.588-.368 1.969a3.54 3.54 0 0 1-.84 1.293c-.39.388-.777.64-1.293.84-.382.148-.948.323-1.97.368-1.03.048-1.34.059-3.971.059"></path><path d="M12 2c-2.716 0-3.057.012-4.123.061-1.064.047-1.791.216-2.428.464a4.875 4.875 0 0 0-1.77 1.154 4.875 4.875 0 0 0-1.154 1.77c-.248.637-.417 1.363-.464 2.428C2.012 8.943 2 9.284 2 12s.012 3.057.061 4.123c.047 1.065.216 1.791.464 2.428a4.875 4.875 0 0 0 1.154 1.77 4.875 4.875 0 0 0 1.77 1.154c.637.248 1.364.417 2.428.464C8.943 21.988 9.284 22 12 22s3.057-.012 4.123-.061c1.064-.047 1.791-.216 2.428-.464a4.875 4.875 0 0 0 1.77-1.154 4.875 4.875 0 0 0 1.154-1.77c.248-.637.417-1.363.464-2.428.049-1.066.061-1.407.061-4.123s-.012-3.057-.061-4.123c-.047-1.065-.216-1.791-.464-2.428a4.875 4.875 0 0 0-1.154-1.77 4.875 4.875 0 0 0-1.77-1.154c-.637-.248-1.364-.417-2.428-.464C15.057 2.012 14.716 2 12 2m0 1.802c2.67 0 2.986.01 4.041.058.975.044 1.504.207 1.856.344.467.182.8.399 1.151.748.349.351.566.684.748 1.151.137.352.3.881.344 1.856.048 1.055.058 1.371.058 4.041 0 2.67-.01 2.986-.058 4.041-.044.975-.207 1.504-.344 1.856-.182.467-.399.8-.748 1.151a3.129 3.129 0 0 1-1.151.748c-.352.137-.881.3-1.856.344-1.055.048-1.371.058-4.041.058-2.67 0-2.986-.01-4.041-.058-.975-.044-1.504-.207-1.856-.344a3.129 3.129 0 0 1-1.151-.748 3.129 3.129 0 0 1-.748-1.151c-.137-.352-.3-.881-.344-1.856-.048-1.055-.058-1.371-.058-4.041 0-2.67.01-2.986.058-4.041.044-.975.207-1.504.344-1.856.182-.467.399-.8.748-1.151a3.129 3.129 0 0 1 1.151-.748c.352-.137.881-.3 1.856-.344C9.014 3.812 9.33 3.802 12 3.802" fill="currentColor"></path><path d="M12 15.245a3.245 3.245 0 1 1 0-6.49 3.245 3.245 0 0 1 0 6.49M12 7a5 5 0 1 0 0 10 5 5 0 0 0 0-10m6-1a1 1 0 1 1-2 0 1 1 0 0 1 2 0" fill="currentColor"></path></g></symbol><symbol id="messenger" viewBox="0 0 24 24"><title>messenger</title><g fill="none" fill-rule="evenodd"><path d="M10.934.022C4.774.022 0 4.534 0 10.628c0 3.188 1.307 5.942 3.434 7.845a.88.88 0 0 1 .295.623l.06 1.945a.876.876 0 0 0 1.227.774l2.17-.957a.873.873 0 0 1 .582-.044 11.9 11.9 0 0 0 3.166.42c6.16 0 10.934-4.512 10.934-10.606S17.094.022 10.934.022Z" fill="currentColor" transform="translate(1 1)"></path><path d="m4.37 13.73 3.21-5.095a1.642 1.642 0 0 1 2.372-.438l2.554 1.916a.657.657 0 0 0 .79-.002l3.45-2.618c.46-.35 1.062.203.752.691l-3.21 5.093a1.642 1.642 0 0 1-2.372.438l-2.554-1.916a.657.657 0 0 0-.79.002l-3.451 2.62c-.46.35-1.063-.202-.753-.69" fill="#fff" transform="translate(1 1)"></path></g></symbol><symbol id="pinterest" viewBox="0 0 24 24"><title>pinterest</title><circle cx="12" cy="12" r="11" fill="#fff"></circle><path d="M12 1a11 11 0 0 0-4 21.25 10.83 10.83 0 0 1 0-3.16c.2-.86 1.29-5.47 1.29-5.47A4 4 0 0 1 9 12c0-1.53.89-2.67 2-2.67a1.37 1.37 0 0 1 1.39 1.54 22.13 22.13 0 0 1-.91 3.67 1.6 1.6 0 0 0 1.63 2c2 0 3.46-2.07 3.46-5A4.34 4.34 0 0 0 12 7a4.76 4.76 0 0 0-5 4.78 4.25 4.25 0 0 0 .82 2.51.31.31 0 0 1 .07.31c-.08.35-.27 1.1-.3 1.25s-.16.24-.37.15C5.83 15.36 5 13.35 5 11.74c0-3.47 2.5-6.66 7.24-6.66A6.45 6.45 0 0 1 19 11.43c0 3.79-2.39 6.84-5.7 6.84A2.93 2.93 0 0 1 10.8 17s-.56 2.1-.69 2.62a12.37 12.37 0 0 1-1.37 2.88A11 11 0 1 0 12 1z" fill="currentColor"></path></symbol><symbol id="runtastic" viewBox="0 0 24 24"><title>runtastic</title><path d="M11.971 2a4.28 4.28 0 0 0-3.24 1.34L5.23 7l1.558 1.67 3.452-3.58a2.25 2.25 0 0 1 3.298 0l.112.11 1.58-1.6-.23-.21A4.28 4.28 0 0 0 11.97 2zm4.93 3.33-1.67 1.55 3.58 3.44a2.25 2.25 0 0 1 0 3.29l-.16.15 1.638 1.57.25-.22a4.27 4.27 0 0 0 0-6.26l-3.638-3.52zM3.5 8.67l-.19.18a4.31 4.31 0 0 0-.06 6.32l3.63 3.5 1.69-1.57L5 13.69a2.27 2.27 0 0 1 0-3.33l.11-.1L3.5 8.67zM17 15.33l-3.4 3.56a2.24 2.24 0 0 1-3.3 0l-.16-.18-1.57 1.62.24.27a4.27 4.27 0 0 0 6.27 0l3.49-3.6L17 15.33z" fill="currentColor"></path></symbol><symbol id="tiktok-default" viewBox="0 0 24 24"><title>tiktok-default</title><defs><path id="a" d="M0 0h24v16.911H0z"></path></defs><g fill="none" fill-rule="evenodd"><path d="M0 24h24V0H0z"></path><path fill="#FFF" d="m9.545 12.024 6.273-3.568-6.273-3.57z" transform="translate(0 3.545)"></path><g fill-rule="nonzero"><path d="m.773 18.83.145.202a2.651 2.651 0 0 1-.145-.202Zm2.935-4.617c.131-1.096.574-1.708 1.406-2.338 1.194-.85 2.682-.37 2.682-.37V8.65c.361-.009.723.013 1.08.066v3.675s-1.487-.48-2.681.37c-.832.63-1.275 1.241-1.406 2.337-.005.594.104 1.374.61 2.043a5.11 5.11 0 0 1-.384-.225c-1.108-.757-1.312-1.897-1.307-2.702ZM15.03 3.367c-.819-.91-1.13-1.835-1.244-2.482h1.031s-.203 1.699 1.293 3.367l.023.022a5.702 5.702 0 0 1-1.103-.907ZM20 5.955v3.6s-1.316-.052-2.293-.303c-1.36-.352-2.233-.893-2.233-.893s-.606-.388-.651-.414v7.438a7.36 7.36 0 0 1-.453 2.311c-.443 1.127-1.13 1.87-1.257 2.02 0 0-.836 1.004-2.306 1.677-1.325.608-2.491.595-2.84.608 0 0-2.012.08-3.825-1.114a7.55 7.55 0 0 1-1.094-.893l.009.009c1.813 1.197 3.825 1.113 3.825 1.113.348-.013 1.515 0 2.84-.607 1.47-.674 2.306-1.677 2.306-1.677.127-.15.814-.894 1.257-2.02.34-.863.452-1.898.452-2.311V7.064c.05.027.651.414.651.414s.873.542 2.234.894c.977.25 2.293.303 2.293.303v-2.82c.452.1.836.127 1.085.1Z" fill="#EE1D52" transform="translate(2 1)"></path><path d="M18.915 5.85v2.82s-1.316-.053-2.293-.304c-1.36-.352-2.234-.893-2.234-.893s-.605-.388-.65-.414V14.5c0 .413-.114 1.448-.453 2.31-.443 1.127-1.13 1.871-1.257 2.02 0 0-.836 1.004-2.306 1.678-1.325.607-2.492.594-2.84.607 0 0-2.012.08-3.825-1.113l-.01-.01a7.329 7.329 0 0 1-.537-.593c-.58-.718-.932-1.563-1.022-1.805v-.004c-.145-.419-.443-1.43-.403-2.404.073-1.72.67-2.781.828-3.046a7.23 7.23 0 0 1 1.605-1.91 6.778 6.778 0 0 1 1.908-1.1 6.52 6.52 0 0 1 2.37-.484V11.5s-1.488-.48-2.682.37c-.832.63-1.275 1.241-1.406 2.337-.005.806.199 1.946 1.311 2.707.131.084.258.159.385.225.194.255.43.48.7.664 1.09.7 2 .749 3.166.295.777-.304 1.36-.986 1.632-1.747.172-.476.167-.951.167-1.444V.885h2.714c.113.647.42 1.571 1.243 2.482.33.344.7.652 1.103.907.118.128.728.744 1.515 1.127.403.198.832.347 1.27.449Z" fill="#000" transform="translate(2 1)"></path><g fill="#69C9D0"><path d="m.407 16.721.145.19a1.682 1.682 0 0 1-.145-.19Z" transform="translate(2 1)"></path><path d="M5.426 9.133a6.716 6.716 0 0 0-1.908 1.1 7.165 7.165 0 0 0-1.605 1.915c-.159.264-.755 1.32-.828 3.046-.04.977.263 1.985.403 2.403v.005c.09.237.443 1.087 1.022 1.804.167.207.348.405.538.595a7.539 7.539 0 0 1-1.624-1.48 6.994 6.994 0 0 1-1.017-1.795v-.009c-.145-.418-.448-1.43-.402-2.408.072-1.72.669-2.781.827-3.045a7.165 7.165 0 0 1 1.605-1.915 6.778 6.778 0 0 1 1.908-1.1 6.82 6.82 0 0 1 1.348-.388 6.903 6.903 0 0 1 2.107-.03v.818a6.525 6.525 0 0 0-2.374.484Z" transform="translate(2 1)"></path><path d="M13.787.885h-2.713v14.023c0 .493 0 .968-.167 1.444-.276.757-.86 1.443-1.633 1.747-1.166.458-2.08.405-3.165-.295a2.904 2.904 0 0 1-.7-.66c.926.48 1.754.471 2.78.07.778-.303 1.361-.99 1.632-1.747.172-.475.168-.95.168-1.444V0h3.748c-.004 0-.045.348.05.885Zm5.128 4.186v.779a5.876 5.876 0 0 1-1.27-.45c-.783-.378-1.394-.998-1.516-1.126.14.088.28.167.43.242.959.462 1.895.603 2.356.555Z" transform="translate(2 1)"></path></g></g></g></symbol><symbol id="tiktok" viewBox="0 0 24 24"><title>tiktok</title><path d="M21.823 9.9c-.18.018-.36.027-.54.028a5.873 5.873 0 0 1-4.915-2.655v9.043a6.684 6.684 0 1 1-6.684-6.684c.14 0 .276.012.413.021v3.294c-.137-.017-.272-.042-.413-.042a3.411 3.411 0 0 0 0 6.823c1.884 0 3.549-1.485 3.549-3.369L13.266 1h3.15a5.87 5.87 0 0 0 5.41 5.24V9.9" fill="currentColor" fill-rule="evenodd"></path></symbol><symbol id="twitter" viewBox="0 0 24 24"><title>twitter</title><g fill="none" fill-rule="evenodd"><path d="M0 24h24V0H0z"></path><path d="M23 12c0 6.075-4.925 11-11 11S1 18.075 1 12 5.925 1 12 1s11 4.925 11 11" fill="#1DA1F2"></path><path d="M10.088 18c4.906 0 7.59-4.232 7.59-7.9 0-.121-.003-.24-.009-.36.521-.392.974-.88 1.331-1.438a5.16 5.16 0 0 1-1.532.437 2.77 2.77 0 0 0 1.173-1.536 5.219 5.219 0 0 1-1.693.674A2.617 2.617 0 0 0 15 7c-1.473 0-2.668 1.244-2.668 2.777 0 .218.024.43.07.633-2.217-.116-4.183-1.221-5.498-2.901-.23.41-.361.887-.361 1.395 0 .964.47 1.814 1.186 2.312a2.568 2.568 0 0 1-1.208-.348v.036c0 1.345.92 2.468 2.14 2.722a2.577 2.577 0 0 1-1.205.048c.34 1.103 1.324 1.906 2.492 1.928A5.219 5.219 0 0 1 6 16.752 7.336 7.336 0 0 0 10.088 18" fill="#FFF"></path></g></symbol><symbol id="vk" viewBox="0 0 24 24"><title>vk</title><g fill="none" fill-rule="evenodd"><path d="M7.623 0h6.754C20.54 0 22 1.46 22 7.623v6.754C22 20.54 20.54 22 14.377 22H7.623C1.46 22 0 20.54 0 14.377V7.623C0 1.46 1.46 0 7.623 0" fill="#4680C2" transform="translate(1 1)"></path><path d="M18.647 7.625c.111-.353 0-.609-.493-.609h-1.636c-.413 0-.603.224-.715.464 0 0-.842 2.05-2.017 3.38-.381.384-.556.512-.763.512-.111 0-.254-.128-.254-.48V7.608c0-.417-.127-.609-.476-.609H9.719a.396.396 0 0 0-.413.384c0 .4.588.497.651 1.618v2.434c0 .528-.095.624-.302.624-.556 0-1.906-2.065-2.716-4.42C6.78 7.177 6.62 7 6.209 7H4.555C4.079 7 4 7.224 4 7.464c0 .433.556 2.61 2.59 5.493 1.35 1.97 3.272 3.027 5.004 3.027 1.048 0 1.175-.24 1.175-.64v-1.49c0-.48.095-.56.429-.56.238 0 .667.128 1.636 1.073C15.946 15.487 16.137 16 16.757 16h1.636c.476 0 .699-.24.572-.705-.143-.464-.684-1.137-1.382-1.937-.382-.449-.954-.945-1.128-1.186-.239-.32-.175-.448 0-.736-.016 0 1.985-2.85 2.192-3.811" fill="#FFF" transform="translate(1 1)"></path></g></symbol><symbol id="whatsapp" viewBox="0 0 24 24"><title>whatsapp</title><path d="m1.05 23 1.55-5.65a10.9 10.9 0 1 1 9.45 5.46 10.88 10.88 0 0 1-5.21-1.33z" fill="currentColor"></path><path d="M12.05 21a9.08 9.08 0 1 0-7.68-4.25l.22.35-.92 3.34 3.43-.9.33.2A9.1 9.1 0 0 0 12 21z" fill="#fff"></path><path d="M17.54 14.5c-.07-.11-.25-.18-.52-.32s-1.62-.79-1.87-.88-.43-.14-.61.13a13.32 13.32 0 0 1-.86 1.07c-.16.18-.32.21-.59.07a7.48 7.48 0 0 1-2.19-1.35 8.3 8.3 0 0 1-1.52-1.89c-.16-.27 0-.42.12-.55s.28-.32.41-.48a1.64 1.64 0 0 0 .27-.46.48.48 0 0 0 0-.47c-.07-.14-.61-1.48-.84-2s-.44-.46-.61-.46h-.54a1 1 0 0 0-.73.34 3 3 0 0 0-1 2.27 5.28 5.28 0 0 0 1.16 2.78 12.11 12.11 0 0 0 4.65 4.11 14.78 14.78 0 0 0 1.55.57 3.73 3.73 0 0 0 1.72.11 2.84 2.84 0 0 0 1.84-1.29 2.25 2.25 0 0 0 .16-1.3z" fill="currentColor"></path></symbol><symbol id="yahoo" viewBox="0 0 24 24"><title>yahoo</title><path d="m17.12 3.374-.132.21c-.124.197-.236.366-.391.6-.208.31-.595.924-1.06 1.713l-.452.764c-.313.527-.668 1.124-.944 1.6l-.352.613a539.98 539.98 0 0 0-1.864 3.267v.546c0 .757.016 1.58.045 2.318.014.335.027.933.041 1.565.018.753.035 1.531.054 1.925l.006.118v.015l-.127-.036c-.05-.015-.1-.027-.152-.04a4.418 4.418 0 0 0-.487-.075 3.822 3.822 0 0 0-.305-.012h-.003c-.103 0-.204.004-.305.012a4.418 4.418 0 0 0-.487.075 2.585 2.585 0 0 0-.152.04l-.128.036.001-.015.006-.118c.019-.393.037-1.171.054-1.925.014-.632.028-1.23.041-1.565.029-.737.045-1.56.045-2.318v-.546L9.138 10.5c-.304-.536-.622-1.09-.93-1.625l-.352-.613a149.81 149.81 0 0 0-.944-1.6l-.452-.764A38.257 38.257 0 0 0 5.4 4.184a26.954 26.954 0 0 1-.391-.6l-.132-.21-.001-.001.24.068c.307.088.62.131.955.131.335 0 .657-.043.957-.128l.073-.02.036.066c.594 1.072 2.188 3.692 3.14 5.258.33.54.59.967.719 1.184l.001-.002.002.002c.129-.217.39-.645.718-1.184.952-1.566 2.547-4.186 3.14-5.258l.037-.066.072.02c.3.085.622.128.957.128.336 0 .648-.043.955-.13l.24-.07.003.002Zm-6.092-1.878C7.14 1.496 3.466.986 0 0v22c3.466-.985 7.14-1.496 11.028-1.496 3.842 0 7.505.5 10.972 1.496V0c-3.467.997-7.13 1.496-10.972 1.496Z" transform="matrix(-1 0 0 1 23 1)" fill="#400090" fill-rule="evenodd"></path></symbol><symbol id="youtube" viewBox="0 0 24 24"><title>youtube</title><path d="M23.5 6.19a3 3 0 0 0-2.12-2.14c-1.88-.5-9.38-.5-9.38-.5s-7.51 0-9.38.5A3 3 0 0 0 .5 6.19 31.67 31.67 0 0 0 0 12a31.67 31.67 0 0 0 .5 5.81A3 3 0 0 0 2.62 20c1.87.5 9.38.5 9.38.5s7.5 0 9.38-.5a3 3 0 0 0 2.12-2.14A31.67 31.67 0 0 0 24 12a31.67 31.67 0 0 0-.5-5.81z" fill="currentColor"></path><path fill="#fff" d="M9.54 15.57 15.82 12 9.54 8.43v7.14z"></path></symbol></svg>